<?xml version="1.0" standalone="no"?>
<!DOCTYPE svg PUBLIC "-//W3C//DTD SVG 20010904//EN"
 "http://www.w3.org/TR/2001/REC-SVG-20010904/DTD/svg10.dtd">
<svg version="1.0" xmlns="http://www.w3.org/2000/svg"
 width="926.000000pt" height="740.000000pt" viewBox="0 0 926.000000 740.000000"
 preserveAspectRatio="xMidYMid meet">
<metadata>
Created by potrace 1.16, written by Peter Selinger 2001-2019
</metadata>
<g transform="translate(0.000000,740.000000) scale(0.100000,-0.100000)"
fill="#fff" stroke="none">
<path d="M2775 6308 c-219 -513 -630 -1471 -913 -2128 -283 -657 -575 -1339
-649 -1515 -74 -176 -161 -374 -193 -440 -53 -109 -906 -2087 -917 -2128 -5
-16 23 -17 527 -15 l533 3 463 1085 c254 597 476 1110 492 1140 16 30 251 569
522 1198 l493 1142 53 0 52 0 329 -770 c180 -423 330 -770 333 -770 6 0 531
1221 530 1233 0 5 -70 169 -156 365 -86 196 -363 836 -616 1422 -253 586 -466
1075 -472 1088 -11 21 -52 -69 -411 -910z"/>
<path d="M5644 6168 c-248 -579 -693 -1614 -988 -2299 l-537 -1247 54 -128
c31 -71 58 -141 62 -156 4 -15 94 -230 199 -478 l193 -452 173 404 c95 221
197 453 225 513 29 61 66 139 82 175 16 36 234 543 483 1128 l454 1062 50 0
51 0 374 -868 c584 -1351 629 -1456 649 -1518 11 -33 124 -302 251 -598 205
-479 231 -545 231 -593 l0 -53 -794 0 -794 0 -150 -362 c-83 -200 -175 -421
-205 -493 l-54 -130 1746 3 c960 1 1747 5 1749 7 2 2 -196 471 -441 1042 -245
571 -454 1063 -465 1093 -36 103 -653 1542 -1707 3980 -229 531 -422 978 -429
993 -10 27 -40 -38 -462 -1025z"/>
</g>
</svg>
